<svg width="139" height="140" viewBox="0 0 139 140" fill="none" xmlns="http://www.w3.org/2000/svg">
<path fill-rule="evenodd" clip-rule="evenodd" d="M96.3354 32.2915V27.0323C96.3354 25.6375 95.7805 24.2998 94.7927 23.3135C93.8049 22.3272 92.4652 21.7731 91.0683 21.7731C89.6714 21.7731 88.3316 22.3272 87.3439 23.3135C86.3561 24.2998 85.8012 25.6375 85.8012 27.0323V35.2893C85.8012 36.6841 85.2462 38.0218 84.2585 39.0081C83.2707 39.9944 81.931 40.5485 80.5341 40.5485C79.1371 40.5485 77.7974 39.9944 76.8097 39.0081C75.8219 38.0218 75.267 36.6841 75.267 35.2893V5.2592C75.267 3.86438 74.712 2.52668 73.7243 1.54038C72.7365 0.554093 71.3968 0 69.9999 0C68.6029 0 67.2632 0.554093 66.2754 1.54038C65.2877 2.52668 64.7327 3.86438 64.7327 5.2592V90.879C64.7327 92.2739 64.1778 93.6116 63.19 94.5979C62.2023 95.5842 60.8626 96.1382 59.4656 96.1382C58.0687 96.1382 56.729 95.5842 55.7412 94.5979C54.7535 93.6116 54.1985 92.2739 54.1985 90.879V26.8219C54.1985 25.4271 53.6436 24.0894 52.6558 23.1031C51.6681 22.1168 50.3283 21.5627 48.9314 21.5627C47.5345 21.5627 46.1948 22.1168 45.207 23.1031C44.2192 24.0894 43.6643 25.4271 43.6643 26.8219V54.0646C43.6643 55.4594 43.1094 56.7971 42.1216 57.7834C41.1338 58.7697 39.7941 59.3238 38.3972 59.3238C37.0003 59.3238 35.6606 58.7697 34.6728 57.7834C33.685 56.7971 33.1301 55.4594 33.1301 54.0646V47.9639C33.1301 46.5691 32.5752 45.2314 31.5874 44.2451C30.5996 43.2588 29.2599 42.7047 27.863 42.7047C26.4661 42.7047 25.1264 43.2588 24.1386 44.2451C23.1508 45.2314 22.5959 46.5691 22.5959 47.9639V91.5627C22.5959 92.9576 23.1508 94.2953 24.1386 95.2816C25.1264 96.2678 26.4661 96.8219 27.863 96.8219C29.2599 96.8219 30.5996 96.2678 31.5874 95.2816C32.5752 94.2953 33.1301 92.9576 33.1301 91.5627V72.84C33.1301 71.4451 33.685 70.1074 34.6728 69.1211C35.6606 68.1349 37.0003 67.5808 38.3972 67.5808C39.7941 67.5808 41.1338 68.1349 42.1216 69.1211C43.1094 70.1074 43.6643 71.4451 43.6643 72.84V113.178C43.6643 114.573 44.2192 115.911 45.207 116.897C46.1948 117.883 47.5345 118.437 48.9314 118.437C50.3283 118.437 51.6681 117.883 52.6558 116.897C53.6436 115.911 54.1985 114.573 54.1985 113.178V109.602C54.1985 108.207 54.7535 106.869 55.7412 105.883C56.729 104.897 58.0687 104.343 59.4656 104.343C60.8626 104.343 62.2023 104.897 63.19 105.883C64.1778 106.869 64.7327 108.207 64.7327 109.602V134.741C64.7327 136.136 65.2877 137.473 66.2754 138.46C67.2632 139.446 68.6029 140 69.9999 140C71.3968 140 72.7365 139.446 73.7243 138.46C74.712 137.473 75.267 136.136 75.267 134.741V54.0646C75.267 52.6698 75.8219 51.3321 76.8097 50.3458C77.7974 49.3595 79.1371 48.8054 80.5341 48.8054C81.931 48.8054 83.2707 49.3595 84.2585 50.3458C85.2462 51.3321 85.8012 52.6698 85.8012 54.0646V112.863C85.8012 114.257 86.3561 115.595 87.3439 116.581C88.3316 117.568 89.6714 118.122 91.0683 118.122C92.4652 118.122 93.8049 117.568 94.7927 116.581C95.7805 115.595 96.3354 114.257 96.3354 112.863V89.5642C96.3354 88.1694 96.8903 86.8317 97.8781 85.8454C98.8659 84.8591 100.206 84.305 101.602 84.305C102.999 84.305 104.339 84.8591 105.327 85.8454C106.315 86.8317 106.87 88.1694 106.87 89.5642V92.8775C107.168 94.0347 107.852 95.0558 108.81 95.7727C109.767 96.4897 110.941 96.8597 112.137 96.8219C113.534 96.8219 114.873 96.2678 115.861 95.2816C116.849 94.2953 117.404 92.9576 117.404 91.5627V48.1217C117.404 46.7269 116.849 45.3892 115.861 44.4029C114.873 43.4166 113.534 42.8625 112.137 42.8625C110.74 42.8625 109.4 43.4166 108.412 44.4029C107.425 45.3892 106.87 46.7269 106.87 48.1217V70.7363C106.87 72.1311 106.315 73.4688 105.327 74.4551C104.339 75.4414 102.999 75.9955 101.602 75.9955C100.206 75.9955 98.8659 75.4414 97.8781 74.4551C96.8903 73.4688 96.3354 72.1311 96.3354 70.7363V32.2915ZM10.5342 69.1059V70.4207C10.5342 71.8156 9.97929 73.1533 8.99151 74.1396C8.00374 75.1258 6.66403 75.6799 5.26711 75.6799C3.87018 75.6799 2.53047 75.1258 1.5427 74.1396C0.554926 73.1533 0 71.8156 0 70.4207V69.1059C0 67.7111 0.554926 66.3734 1.5427 65.3871C2.53047 64.4008 3.87018 63.8467 5.26711 63.8467C6.66403 63.8467 8.00374 64.4008 8.99151 65.3871C9.97929 66.3734 10.5342 67.7111 10.5342 69.1059ZM138.999 69.1059V70.3681C138.999 71.763 138.444 73.1007 137.456 74.087C136.468 75.0733 135.129 75.6273 133.732 75.6273C132.335 75.6273 130.995 75.0733 130.007 74.087C129.02 73.1007 128.465 71.763 128.465 70.3681V69.1059C128.465 67.7111 129.02 66.3734 130.007 65.3871C130.995 64.4008 132.335 63.8467 133.732 63.8467C134.432 63.8466 135.126 63.986 135.772 64.2569C136.418 64.5277 137.004 64.9246 137.494 65.4241C137.985 65.9237 138.37 66.5159 138.629 67.1662C138.887 67.8165 139.013 68.5117 138.999 69.2111V69.1059Z" fill="black" fill-opacity="0.3"/>
</svg>
