<svg xmlns="http://www.w3.org/2000/svg" viewBox="373 -2 274 274" role="img">
  <title>Universal Music Group</title>
  <g fill="#0066B3">
    <path fill-rule="evenodd" clip-rule="evenodd" d="M630.688,175.361c-17.353,53.238-66.11,94.66-127.918,94.66   c-65.538,0-109.603-40.864-127.292-93.504c18.404,49.039,68.488,84.199,127.39,84.199   C562.222,260.716,612.632,225.001,630.688,175.361 M375.183,94.12C392.613,41.018,433.852,0,502.77,0   c64.059,0,111.133,41.579,128.201,95.282C613.163,45.233,562.526,9.119,502.867,9.119C443.655,9.119,393.352,44.672,375.183,94.12"/>
    <path fill-rule="evenodd" clip-rule="evenodd" d="M505.482,81.005c0.828-1.211,3.309-0.404,5.069-0.362   c2.382,0.047,1.814,3.498,5.078,2.81c3.262-0.682,3.306,3.06,7.962,2.928c4.684-0.145-0.93,1.607-0.93,1.607   s-2.889-1.374-4.768-0.458c-0.98,0.483,0.371-0.272-1.274-1.612c-2.568-2.066-2.229,0.392-6.538-3.217   C507.054,80.16,504.138,83.004,505.482,81.005 M528.91,175.245c1.858,0.74,4.17,2.57,5.241,5.351   c2.524,6.595-1.227,1.249-1.227,11.193c0,9.156-2.622,7.671-2.622,7.671s-0.568,10.82-6.231,17.465   c-3.615,3.577-0.808,6.539-0.808,6.539s-1.227,0.667-2.997,8.516c-0.567,2.544,2.727,6.461,5.599,5.484   c2.136-0.73-5.221-1.43,2.755-4.752c3.078-1.283,0.561-3.693,0.561-3.693s5.167-0.382,8.083-8.079   c5.137,0.736,3.227-2.365,13.813-4.614c2.799-0.598,3.39-1.425,3.045-4.024c-0.352-2.587,3.45,0.38,13.936-10.156   c8.269-8.319,5.289-10.191,10.999-13.214c6.039-3.168,6.593,0.283,8.614-2.312c4.629-5.903,2.99-5.539,4.913-9.298l1.365-2.088   L528.91,175.245z M470.761,87.743c-1.717-4.178-1.602-10.947,2.069-17.207c2.312-3.91,8.441-5.642,13.793-3.583   c6.008-4.668,7.438,0.354,12.756-1.916c6.984-2.985,3.071,7.905,9.84,10.663c2.795-7.344-6.376-12.859-0.625-16.326   c4.105-2.463,7.198-3.993,8.877-7.304c2.399-4.707,3.339-8.146,5.177-8.771c4.265-1.428,3.346-5.42,3.346-5.42   s4.528,1.313,8.06-1.95c-2.693-1.426-6.623-2.663-5.59-5.508c1.21-3.362,10.344,3.472,13.037-2.042   c-5.42-2.335-10.965-7.397-14.28-8.563c-2.281,2.44-3.696,1.458-6.63-0.834c-4.961-3.866-5.38-0.181-8.481-2.851   c-2.48,4.908,1.247,4.518,2.402,5.747c3.187,3.438-3.23-3.09-2.612,5.684c0.162,2.281-3.251,2.696-5.792-2.246   c-1.324-2.571-11.867-2.024-13.459-4.486c1.453-2.862,13.861-13.059,32.92-10.614c-27.682-10.712-65.085,0.999-65.458,5.069   c-3.727,2.305-2.445,4.93-4.303,5.545c-3.217,1.061-6.738,10.765-6.738,10.765s2.006,1.319-4.251,8.223   c-5.155,5.684-6.684,14.303-6.684,14.303s3.409,6.14,2.764,13.219c-0.487,5.395-0.717,1.396,1.667,5.309   c1.385,2.289,2.901,10.283,3.823,7.166c1.764-5.956-3.207-11.457-2.386-17.376c0.183,0.737,1.911-2.342,1.844,0.446   c-0.191,7.308,9.134,21.39,9.134,21.39s-3.48,3.475,0.15,3.475L470.761,87.743z"/>
  </g>
</svg>